<svg width="13" height="13" viewBox="0 0 13 13" fill="none" xmlns="http://www.w3.org/2000/svg">
<path d="M0.590881 10.9317C0.590881 10.1481 0.902163 9.39662 1.45625 8.84254C2.01033 8.28845 2.76183 7.97717 3.54543 7.97717H9.45452C10.2381 7.97717 10.9896 8.28845 11.5437 8.84254C12.0978 9.39662 12.4091 10.1481 12.4091 10.9317C12.4091 11.3235 12.2534 11.6993 11.9764 11.9763C11.6993 12.2533 11.3236 12.409 10.9318 12.409H2.06815C1.67636 12.409 1.30061 12.2533 1.02356 11.9763C0.746522 11.6993 0.590881 11.3235 0.590881 10.9317Z" stroke="#252525" stroke-linejoin="round"/>
<path d="M6.49997 5.02264C7.72378 5.02264 8.71588 4.03054 8.71588 2.80673C8.71588 1.58292 7.72378 0.59082 6.49997 0.59082C5.27615 0.59082 4.28406 1.58292 4.28406 2.80673C4.28406 4.03054 5.27615 5.02264 6.49997 5.02264Z" stroke="#252525"/>
</svg>
